<svg xmlns="http://www.w3.org/2000/svg" viewBox="0 0 903 199.5"><title>workers-zig</title><rect width="903" height="199.5" rx="13.86958" style="fill:#003682"/><path d="M75.13725,60.73579,59.89763,79.362,52.27782,67.509Zm0,0-11.00639,9.3131L59.89763,79.362H54.81776v43.17892h7.61981l-9.3131,4.23322-6.77316,14.393H36.19156V60.73579ZM62.43757,122.54091,46.35131,141.1671l-6.77317-9.3131Z" style="fill:#f48120"/><path d="M83.6037,60.73579l5.07987,11.853L67.51744,79.362Zm0,0h46.5655V79.362H67.51744L83.6037,69.20225Zm50.79872,61.80512L118.31616,141.1671l-5.92652-11.00639Zm0,0-13.54632,7.6198-2.53994,11.00639H71.75067V122.54091ZM163.18837,42.1096,80.21712,141.1671,38.7315,160.64l82.97124-99.90416Z" style="fill:#f48120"/><path d="M155.56856,60.73579l-.84665,15.23962L139.4823,80.20864Zm10.15974,0V141.1671H125.936l11.853-10.15974,4.23322-8.46645h5.07987V80.20864h-7.6198l8.46645-7.61981,7.61981-11.853Zm-23.70607,61.80512,4.23323,12.69968L125.936,141.1671Z" style="fill:#f48120"/><path d="M72.174,57.48625,56.93437,76.11245l-7.61981-11.853Zm0,0L61.1676,66.79935l-4.23323,9.3131H51.8545v43.17891h7.61981l-9.3131,4.23323-6.77316,14.393H33.2283V57.48625ZM59.47431,119.29136l-16.08626,18.6262-6.77317-9.3131Z" style="fill:#faad3f"/><path d="M80.64044,57.48625l5.07987,11.853L64.55418,76.11245Zm0,0h46.5655v18.6262H64.55418L80.64044,65.9527Zm50.79872,61.80511-16.08626,18.6262-5.92651-11.00639Zm0,0-13.54632,7.61981-2.53994,11.00639H68.78741v-18.6262Zm28.786-80.43131L77.25386,137.91756,35.76824,157.3904l82.97124-99.90415Z" style="fill:#faad3f"/><path d="M152.6053,57.48625l-.84665,15.23962L136.519,76.95909Zm10.15974,0v80.43131H122.97271l11.853-10.15974,4.23322-8.46646h5.07988V76.95909H136.519l8.46645-7.6198,7.61981-11.853ZM139.059,119.29136,143.2922,131.991l-20.31949,5.92652Z" style="fill:#faad3f"/><polygon points="236.128 96.89 222.24 96.89 222.24 83.001 210.519 83.001 210.519 96.89 196.63 96.89 196.63 108.61 210.519 108.61 210.519 122.499 222.24 122.499 222.24 108.61 236.128 108.61 236.128 96.89" style="fill:#035cdd"/><polygon points="232.128 93.89 218.24 93.89 218.24 80.001 206.519 80.001 206.519 93.89 192.63 93.89 192.63 105.61 206.519 105.61 206.519 119.499 218.24 119.499 218.24 105.61 232.128 105.61 232.128 93.89" style="fill:#6ecce5"/><path d="M414.59735,98.68982l-19.79-4.59409-3.53392-1.41357-90.82178.70678v43.82063l114.14569.35339Z" style="fill:#fff"/><path d="M377.49117,133.32226c1.06019-3.53392.70677-7.06784-1.06019-9.1882a10.93489,10.93489,0,0,0-7.42123-3.88731L307.5195,119.54c-.35338,0-.70677-.35339-1.06018-.35339a.66262.66262,0,0,1,0-1.06018c.35338-.70679.70677-1.06017,1.41357-1.06017l61.84364-.70679c7.42123-.35339,15.19587-6.36106,18.023-13.4289l3.53392-9.1882c0-.35339.35339-.70678,0-1.06018a40.27419,40.27419,0,0,0-77.39289-4.2407,19.293,19.293,0,0,0-12.72212-3.53392c-8.48141.70678-15.19586,7.77462-16.256,16.256a19.30363,19.30363,0,0,0,.35339,6.36106,25.80386,25.80386,0,0,0-25.09084,25.79763,14.49652,14.49652,0,0,0,.35338,3.88732,1.12839,1.12839,0,0,0,1.06018,1.06017h113.4389c.70677,0,1.41357-.35339,1.41357-1.06017Z" style="fill:#f48120"/><path d="M396.92774,93.74234h-1.767c-.35339,0-.70677.35339-1.06019.70678l-2.47373,8.48141c-1.06019,3.53392-.70678,7.06784,1.06019,9.1882a10.93489,10.93489,0,0,0,7.42123,3.88731l13.0755.70679c.35338,0,.70677.35339,1.06018.35339a.66262.66262,0,0,1,0,1.06018c-.35338.70679-.70677,1.06017-1.41357,1.06017l-13.42891.70679c-7.42123.35339-15.19588,6.36106-18.023,13.4289l-.70677,3.18053c-.35339.35339,0,1.06017.70677,1.06017h46.64776a.93708.93708,0,0,0,1.06019-1.06017,38.41924,38.41924,0,0,0,1.41357-9.1882,33.78588,33.78588,0,0,0-33.57226-33.57226" style="fill:#faad3f"/><rect x="449.40465" y="24.49938" width="424.69461" height="150.50123" rx="75.25054" style="fill:#0055dc"/><rect x="455.8529" y="32.17655" width="411.79813" height="135.14691" rx="67.57339" style="fill:#6ecce5"/><rect x="465.96091" y="41.78135" width="391.58209" height="115.9373" rx="57.96859" style="fill:#e4e9f2"/><path d="M521.39355,103.12549,524.69336,83.811h9.77832L526.752,116.56689H518.124l-5.41894-19.43554-5.44922,19.43554h-8.62793L490.9082,83.811h9.77832l3.23926,19.76855,5.207-19.76855h7.11426Z" style="fill:#003682"/><path d="M536.833,99.88623a19.33359,19.33359,0,0,1,1.90722-8.73389,13.63988,13.63988,0,0,1,5.4795-5.88818,16.50424,16.50424,0,0,1,8.38574-2.05859q7.35645,0,11.59473,4.55615,4.23779,4.5564,4.23828,12.397v.36328q0,7.65968-4.25391,12.1543-4.25244,4.4956-11.51855,4.49609-6.99316,0-11.23145-4.19336-4.23926-4.19238-4.57129-11.36718Zm10.20215.63574q0,4.541,1.42285,6.66016a4.73836,4.73836,0,0,0,4.208,2.11914q5.44921,0,5.57031-8.38574v-1.0293q0-8.80957-5.63086-8.80957-5.11669,0-5.54,7.59863Z" style="fill:#003682"/><path d="M592.74805,93.04443l-3.36035-.24218q-4.81348,0-6.17579,3.02734v20.7373H573.00977V83.811h9.5664l.333,4.208q2.57226-4.81347,7.1748-4.81347a9.95036,9.95036,0,0,1,2.84571.36328Z" style="fill:#003682"/><path d="M609.58008,104.3667l-2.876,2.876v9.32421H596.502V70.03662H606.7041V94.73975l1.0293-1.36231,7.68945-9.5664h12.23047L616.17969,97.28271l12.23047,19.28418H616.72461Z" style="fill:#003682"/><path d="M645.5752,117.17236q-7.5381,0-12.2002-4.49609a15.52161,15.52161,0,0,1-4.66211-11.7002v-.84765a20.10414,20.10414,0,0,1,1.86231-8.87012,13.61628,13.61628,0,0,1,5.43359-5.94873,16.40616,16.40616,0,0,1,8.47656-2.104q6.90234,0,10.89844,4.28369,3.99609,4.28392,3.99609,11.94287V103.398h-20.2832a7.35163,7.35163,0,0,0,2.3916,4.3291,7.11275,7.11275,0,0,0,4.7832,1.57422,9.16891,9.16891,0,0,0,7.56836-3.39063l4.66211,5.50977a13.03347,13.03347,0,0,1-5.40332,4.19238A18.27436,18.27436,0,0,1,645.5752,117.17236Zm-1.1504-26.0957q-4.481,0-5.32812,5.93359h10.293v-.78711a5.05779,5.05779,0,0,0-1.24121-3.79931A4.94072,4.94072,0,0,0,644.4248,91.07666Z" style="fill:#003682"/><path d="M683.2959,93.04443l-3.36035-.24218q-4.81349,0-6.17578,3.02734v20.7373H663.55762V83.811h9.5664l.333,4.208q2.57227-4.81347,7.17481-4.81347a9.95034,9.95034,0,0,1,2.8457.36328Z" style="fill:#003682"/><path d="M704.124,107.36377a2.35622,2.35622,0,0,0-1.3623-2.08887,20.75006,20.75006,0,0,0-5.17676-1.63476,23.586,23.586,0,0,1-6.29687-2.2251,10.53466,10.53466,0,0,1-3.78418-3.34522,7.98478,7.98478,0,0,1-1.30176-4.51074,9.054,9.054,0,0,1,3.72363-7.43213q3.72363-2.92089,9.748-2.92138,6.47754,0,10.41406,2.93652a9.18529,9.18529,0,0,1,3.93555,7.71973H703.791q0-3.93531-4.14747-3.93555a4.11088,4.11088,0,0,0-2.69433.89307,2.766,2.766,0,0,0-1.08984,2.22509,2.53657,2.53657,0,0,0,1.332,2.21,12.574,12.574,0,0,0,4.2539,1.39258,36.79482,36.79482,0,0,1,5.13086,1.30176q7.38574,2.543,7.38672,9.11231a8.57919,8.57919,0,0,1-3.98047,7.29589q-3.98145,2.81544-10.30859,2.81543a17.81709,17.81709,0,0,1-7.50781-1.51367,12.548,12.548,0,0,1-5.14649-4.11719,9.32083,9.32083,0,0,1-1.84668-5.47949H694.709a3.94085,3.94085,0,0,0,1.51368,3.31445,6.22649,6.22649,0,0,0,3.72363,1.04493,4.89949,4.89949,0,0,0,3.13379-.84766A2.71431,2.71431,0,0,0,704.124,107.36377Z" style="fill:#003682"/><path d="M738.666,103.49072H720.47168V95.61963H738.666Z" style="fill:#f48120"/><path d="M758.64648,108.6958h14.92481v7.87109H745.75v-5.6914l14.53125-19.19336H746.38574V83.811h26.85254V89.3208Z" style="fill:#003682"/><path d="M778.44531,75.36475a4.55308,4.55308,0,0,1,1.57422-3.57227,6.69339,6.69339,0,0,1,8.17383,0,4.84025,4.84025,0,0,1,0,7.14453,6.69339,6.69339,0,0,1-8.17383,0A4.55238,4.55238,0,0,1,778.44531,75.36475Zm10.83789,41.20214H779.05078V83.811H789.2832Z" style="fill:#003682"/><path d="M794.36914,99.94678a22.11793,22.11793,0,0,1,1.63477-8.7793,13.15782,13.15782,0,0,1,4.69238-5.88818,12.36827,12.36827,0,0,1,7.11426-2.07373,9.837,9.837,0,0,1,7.99218,3.45117l.36329-2.8457h9.26367v31.51464a13.81093,13.81093,0,0,1-2.0127,7.52246,12.91446,12.91446,0,0,1-5.82812,4.9043,21.41709,21.41709,0,0,1-8.83985,1.71094,18.482,18.482,0,0,1-6.97851-1.36231,12.59387,12.59387,0,0,1-5.16113-3.542l4.26855-5.99414a9.35341,9.35341,0,0,0,7.50781,3.36035q6.78076,0,6.78125-6.96289v-1.02929a9.58262,9.58262,0,0,1-7.417,3.23925,11.83851,11.83851,0,0,1-9.68752-4.58691q-3.69431-4.58643-3.69334-12.27539Zm10.23242.63574a11.64283,11.64283,0,0,0,1.51367,6.37207,4.77515,4.77515,0,0,0,4.23829,2.34668,5.41934,5.41934,0,0,0,4.81347-2.21V93.31689a5.2841,5.2841,0,0,0-4.75293-2.24023,4.80779,4.80779,0,0,0-4.26855,2.437Q804.60156,95.95117,804.60156,100.58252Z" style="fill:#003682"/></svg>